<svg xmlns="http://www.w3.org/2000/svg" version="1.1" xmlns="http://www.w3.org/2000/svg" xmlns:xlink="http://www.w3.org/1999/xlink" x="0px" y="0px"
     viewBox="0 0 75 75" xml:space="preserve">
  <path d="M23.21,38.68h5.92c1.32,0,3.59,0.58,3.59,3.09c0,1.33-1.04,2.87-2.35,2.87h-7.17V38.68z M42.29,26.78h10.68
			v3.55H42.29V26.78z M51.55,38.68h-7.83c0.24-2.11,1.85-3.53,3.94-3.53C49.72,35.15,51.24,36.6,51.55,38.68L51.55,38.68z
			 M43.45,41.05h13.11c0-0.18,0-0.4,0-0.58c0-4.92-3.55-8.94-8.91-8.94c-5.4,0-8.94,4.02-8.94,8.94c0,4.96,3.53,8.93,8.94,8.93
			c5.36,0,7.93-3.07,8.73-7.17h-4.84c-0.42,2.11-1.67,3.59-3.9,3.59C45.38,45.83,43.65,43.72,43.45,41.05L43.45,41.05z M37.53,42.24
			c0-2.57-1.73-4.8-4.06-5.6c1.68-1.06,2.83-2.95,2.83-5.1c0-3.27-2.67-5.94-5.92-5.94H18.44v23.81h11.95
			C34.28,49.41,37.53,46.21,37.53,42.24L37.53,42.24z M29.14,35.15h-5.92v-4.82h5.92c1.32,0,2.41,1.09,2.41,2.43
			C31.55,34.07,30.46,35.15,29.14,35.15L29.14,35.15z"/>
</svg>
