<svg version="1.1" xmlns="http://www.w3.org/2000/svg" xmlns:xlink="http://www.w3.org/1999/xlink" x="0px" y="0px"
	 viewBox="0 0 75 75" xml:space="preserve">
<g>
	<g>
		<path d="M46.14,57.98H28.91c-6.28,0-11.38-5.11-11.38-11.38V29.37c0-6.28,5.11-11.38,11.38-11.38h17.23
			c6.28,0,11.38,5.11,11.38,11.38V46.6C57.52,52.87,52.42,57.98,46.14,57.98z M28.91,21.41c-4.39,0-7.96,3.57-7.96,7.95V46.6
			c0,4.39,3.57,7.96,7.96,7.96h17.23c4.39,0,7.96-3.57,7.96-7.96V29.37c0-4.39-3.57-7.95-7.96-7.95H28.91z"/>
	</g>
	<g>
		<path d="M37.52,48.22c-5.65,0-10.24-4.59-10.24-10.24c0-5.65,4.59-10.24,10.24-10.24s10.24,4.59,10.24,10.24
			C47.76,43.63,43.17,48.22,37.52,48.22z M37.52,31.17c-3.76,0-6.81,3.06-6.81,6.81c0,3.76,3.06,6.81,6.81,6.81
			c3.76,0,6.81-3.06,6.81-6.81C44.34,34.23,41.28,31.17,37.52,31.17z"/>
	</g>
	<g>
		<path d="M50.67,27.16c0,1.36-1.1,2.46-2.46,2.46c-1.36,0-2.46-1.1-2.46-2.46s1.1-2.46,2.46-2.46
			C49.56,24.69,50.67,25.8,50.67,27.16z"/>
	</g>
</g>
<g>
	<g>
		<path d="M46.11,57.5H28.89c-6.28,0-11.38-5.11-11.38-11.38V28.89c0-6.28,5.11-11.38,11.38-11.38h17.23
			c6.28,0,11.38,5.11,11.38,11.38v17.23C57.5,52.39,52.39,57.5,46.11,57.5z M28.89,20.93c-4.39,0-7.96,3.57-7.96,7.95v17.23
			c0,4.39,3.57,7.96,7.96,7.96h17.23c4.39,0,7.96-3.57,7.96-7.96V28.89c0-4.39-3.57-7.95-7.96-7.95H28.89z"/>
	</g>
	<g>
		<path  d="M37.5,47.74c-5.65,0-10.24-4.59-10.24-10.24c0-5.65,4.59-10.24,10.24-10.24s10.24,4.59,10.24,10.24
			C47.74,43.15,43.15,47.74,37.5,47.74z M37.5,30.69c-3.76,0-6.81,3.06-6.81,6.81c0,3.76,3.06,6.81,6.81,6.81s6.81-3.06,6.81-6.81
			C44.31,33.74,41.26,30.69,37.5,30.69z"/>
	</g>
	<g>
		<path  d="M50.64,26.67c0,1.36-1.1,2.46-2.46,2.46c-1.36,0-2.46-1.1-2.46-2.46s1.1-2.46,2.46-2.46
			C49.54,24.21,50.64,25.31,50.64,26.67z"/>
	</g>
</g>
</svg>
