<svg version="1.1" xmlns="http://www.w3.org/2000/svg" xmlns:xlink="http://www.w3.org/1999/xlink" x="0px" y="0px"
	 viewBox="0 0 75 75" xml:space="preserve">

<path class="st4" d="M22.22,37.82v14.96h7.12V36.6v-4.2h-7.12V37.82z M52.61,38.66c-0.47-3.86-2.23-6.26-7.44-6.26
	c-3.06,0-5.12,1.13-5.98,2.76h-0.09V32.4h-5.68v3.92v16.46h5.94V42.68c0-2.66,0.52-5.23,3.79-5.23c3.28,0,3.52,3.04,3.52,5.42
	v9.92h6.11V41.59C52.78,40.54,52.72,39.56,52.61,38.66L52.61,38.66z M25.78,22.22c-1.97,0-3.56,1.59-3.56,3.56
	s1.59,3.56,3.56,3.56c1.97,0,3.56-1.59,3.56-3.56S27.75,22.22,25.78,22.22L25.78,22.22z"/>

</svg>
